<mxfile host="app.diagrams.net" modified="2023-11-06T20:03:02.947Z" agent="Mozilla/5.0 (Windows NT 10.0; Win64; x64) AppleWebKit/537.36 (KHTML, like Gecko) Chrome/109.0.0.0 Safari/537.36 Edg/109.0.1518.61" etag="w1J8Eg43WTlNiTu0xLxy" version="22.0.8" type="github">
  <diagram name="PÃ¡gina-1" id="WvRyxk6PXsDEB4z57DiI">
    <mxGraphModel dx="978" dy="1707" grid="1" gridSize="10" guides="1" tooltips="1" connect="1" arrows="1" fold="1" page="1" pageScale="1" pageWidth="1654" pageHeight="1169" math="0" shadow="0">
      <root>
        <mxCell id="0" />
        <mxCell id="1" parent="0" />
        <mxCell id="WFNdp1j5Sh6ukdSeras9-1" value="&lt;b&gt;&lt;font color=&quot;#860303&quot; style=&quot;font-size: 15px;&quot;&gt;BANORTE&lt;/font&gt;&lt;/b&gt;" style="points=[[0,0],[0.25,0],[0.5,0],[0.75,0],[1,0],[1,0.25],[1,0.5],[1,0.75],[1,1],[0.75,1],[0.5,1],[0.25,1],[0,1],[0,0.75],[0,0.5],[0,0.25]];outlineConnect=0;gradientColor=none;html=1;whiteSpace=wrap;fontSize=12;fontStyle=0;container=1;pointerEvents=0;collapsible=0;recursiveResize=0;shape=mxgraph.aws4.group;grIcon=mxgraph.aws4.group_on_premise;strokeColor=#050505;fillColor=none;verticalAlign=top;align=left;spacingLeft=30;fontColor=#5A6C86;dashed=0;strokeWidth=2;" parent="1" vertex="1">
          <mxGeometry x="40" y="-20" width="1350" height="570" as="geometry" />
        </mxCell>
        <mxCell id="WFNdp1j5Sh6ukdSeras9-3" value="" style="shape=image;html=1;verticalAlign=top;verticalLabelPosition=bottom;labelBackgroundColor=#ffffff;imageAspect=0;aspect=fixed;image=https://cdn2.iconfinder.com/data/icons/whcompare-isometric-web-hosting-servers/50/database-128.png;" parent="WFNdp1j5Sh6ukdSeras9-1" vertex="1">
          <mxGeometry x="40" y="77" width="84" height="84" as="geometry" />
        </mxCell>
        <mxCell id="WFNdp1j5Sh6ukdSeras9-4" value="&lt;font style=&quot;font-size: 16px;&quot;&gt;ACSEL&lt;br&gt;REPLICA&lt;/font&gt;" style="text;html=1;strokeColor=none;fillColor=none;align=center;verticalAlign=middle;whiteSpace=wrap;rounded=0;fontSize=15;fontStyle=1" parent="WFNdp1j5Sh6ukdSeras9-1" vertex="1">
          <mxGeometry x="33.25" y="164" width="97.5" height="30" as="geometry" />
        </mxCell>
        <mxCell id="WFNdp1j5Sh6ukdSeras9-18" value="AC_MOD_VEH_VERH" style="shape=table;startSize=30;container=1;collapsible=0;childLayout=tableLayout;strokeColor=default;fontSize=16;" parent="WFNdp1j5Sh6ukdSeras9-1" vertex="1">
          <mxGeometry x="640" y="106.50000000000001" width="170" height="55" as="geometry" />
        </mxCell>
        <mxCell id="WFNdp1j5Sh6ukdSeras9-19" value="" style="shape=tableRow;horizontal=0;startSize=0;swimlaneHead=0;swimlaneBody=0;strokeColor=inherit;top=0;left=0;bottom=0;right=0;collapsible=0;dropTarget=0;fillColor=none;points=[[0,0.5],[1,0.5]];portConstraint=eastwest;fontSize=16;" parent="WFNdp1j5Sh6ukdSeras9-18" vertex="1">
          <mxGeometry y="30" width="170" height="8" as="geometry" />
        </mxCell>
        <mxCell id="WFNdp1j5Sh6ukdSeras9-20" value="" style="shape=partialRectangle;html=1;whiteSpace=wrap;connectable=0;strokeColor=inherit;overflow=hidden;fillColor=none;top=0;left=0;bottom=0;right=0;pointerEvents=1;fontSize=16;" parent="WFNdp1j5Sh6ukdSeras9-19" vertex="1">
          <mxGeometry width="56" height="8" as="geometry">
            <mxRectangle width="56" height="8" as="alternateBounds" />
          </mxGeometry>
        </mxCell>
        <mxCell id="WFNdp1j5Sh6ukdSeras9-21" value="" style="shape=partialRectangle;html=1;whiteSpace=wrap;connectable=0;strokeColor=inherit;overflow=hidden;fillColor=none;top=0;left=0;bottom=0;right=0;pointerEvents=1;fontSize=16;" parent="WFNdp1j5Sh6ukdSeras9-19" vertex="1">
          <mxGeometry x="56" width="58" height="8" as="geometry">
            <mxRectangle width="58" height="8" as="alternateBounds" />
          </mxGeometry>
        </mxCell>
        <mxCell id="WFNdp1j5Sh6ukdSeras9-22" value="" style="shape=partialRectangle;html=1;whiteSpace=wrap;connectable=0;strokeColor=inherit;overflow=hidden;fillColor=none;top=0;left=0;bottom=0;right=0;pointerEvents=1;fontSize=16;" parent="WFNdp1j5Sh6ukdSeras9-19" vertex="1">
          <mxGeometry x="114" width="56" height="8" as="geometry">
            <mxRectangle width="56" height="8" as="alternateBounds" />
          </mxGeometry>
        </mxCell>
        <mxCell id="WFNdp1j5Sh6ukdSeras9-23" value="" style="shape=tableRow;horizontal=0;startSize=0;swimlaneHead=0;swimlaneBody=0;strokeColor=inherit;top=0;left=0;bottom=0;right=0;collapsible=0;dropTarget=0;fillColor=none;points=[[0,0.5],[1,0.5]];portConstraint=eastwest;fontSize=16;" parent="WFNdp1j5Sh6ukdSeras9-18" vertex="1">
          <mxGeometry y="38" width="170" height="9" as="geometry" />
        </mxCell>
        <mxCell id="WFNdp1j5Sh6ukdSeras9-24" value="" style="shape=partialRectangle;html=1;whiteSpace=wrap;connectable=0;strokeColor=inherit;overflow=hidden;fillColor=none;top=0;left=0;bottom=0;right=0;pointerEvents=1;fontSize=16;" parent="WFNdp1j5Sh6ukdSeras9-23" vertex="1">
          <mxGeometry width="56" height="9" as="geometry">
            <mxRectangle width="56" height="9" as="alternateBounds" />
          </mxGeometry>
        </mxCell>
        <mxCell id="WFNdp1j5Sh6ukdSeras9-25" value="" style="shape=partialRectangle;html=1;whiteSpace=wrap;connectable=0;strokeColor=inherit;overflow=hidden;fillColor=none;top=0;left=0;bottom=0;right=0;pointerEvents=1;fontSize=16;" parent="WFNdp1j5Sh6ukdSeras9-23" vertex="1">
          <mxGeometry x="56" width="58" height="9" as="geometry">
            <mxRectangle width="58" height="9" as="alternateBounds" />
          </mxGeometry>
        </mxCell>
        <mxCell id="WFNdp1j5Sh6ukdSeras9-26" value="" style="shape=partialRectangle;html=1;whiteSpace=wrap;connectable=0;strokeColor=inherit;overflow=hidden;fillColor=none;top=0;left=0;bottom=0;right=0;pointerEvents=1;fontSize=16;" parent="WFNdp1j5Sh6ukdSeras9-23" vertex="1">
          <mxGeometry x="114" width="56" height="9" as="geometry">
            <mxRectangle width="56" height="9" as="alternateBounds" />
          </mxGeometry>
        </mxCell>
        <mxCell id="WFNdp1j5Sh6ukdSeras9-27" value="" style="shape=tableRow;horizontal=0;startSize=0;swimlaneHead=0;swimlaneBody=0;strokeColor=inherit;top=0;left=0;bottom=0;right=0;collapsible=0;dropTarget=0;fillColor=none;points=[[0,0.5],[1,0.5]];portConstraint=eastwest;fontSize=16;" parent="WFNdp1j5Sh6ukdSeras9-18" vertex="1">
          <mxGeometry y="47" width="170" height="8" as="geometry" />
        </mxCell>
        <mxCell id="WFNdp1j5Sh6ukdSeras9-28" value="" style="shape=partialRectangle;html=1;whiteSpace=wrap;connectable=0;strokeColor=inherit;overflow=hidden;fillColor=none;top=0;left=0;bottom=0;right=0;pointerEvents=1;fontSize=16;" parent="WFNdp1j5Sh6ukdSeras9-27" vertex="1">
          <mxGeometry width="56" height="8" as="geometry">
            <mxRectangle width="56" height="8" as="alternateBounds" />
          </mxGeometry>
        </mxCell>
        <mxCell id="WFNdp1j5Sh6ukdSeras9-29" value="" style="shape=partialRectangle;html=1;whiteSpace=wrap;connectable=0;strokeColor=inherit;overflow=hidden;fillColor=none;top=0;left=0;bottom=0;right=0;pointerEvents=1;fontSize=16;" parent="WFNdp1j5Sh6ukdSeras9-27" vertex="1">
          <mxGeometry x="56" width="58" height="8" as="geometry">
            <mxRectangle width="58" height="8" as="alternateBounds" />
          </mxGeometry>
        </mxCell>
        <mxCell id="WFNdp1j5Sh6ukdSeras9-30" value="" style="shape=partialRectangle;html=1;whiteSpace=wrap;connectable=0;strokeColor=inherit;overflow=hidden;fillColor=none;top=0;left=0;bottom=0;right=0;pointerEvents=1;fontSize=16;" parent="WFNdp1j5Sh6ukdSeras9-27" vertex="1">
          <mxGeometry x="114" width="56" height="8" as="geometry">
            <mxRectangle width="56" height="8" as="alternateBounds" />
          </mxGeometry>
        </mxCell>
        <mxCell id="WFNdp1j5Sh6ukdSeras9-53" value="MOD_VEH_VER" style="shape=table;startSize=30;container=1;collapsible=0;childLayout=tableLayout;strokeColor=default;fontSize=16;" parent="WFNdp1j5Sh6ukdSeras9-1" vertex="1">
          <mxGeometry x="640" y="228.2" width="170" height="55" as="geometry" />
        </mxCell>
        <mxCell id="WFNdp1j5Sh6ukdSeras9-54" value="" style="shape=tableRow;horizontal=0;startSize=0;swimlaneHead=0;swimlaneBody=0;strokeColor=inherit;top=0;left=0;bottom=0;right=0;collapsible=0;dropTarget=0;fillColor=none;points=[[0,0.5],[1,0.5]];portConstraint=eastwest;fontSize=16;" parent="WFNdp1j5Sh6ukdSeras9-53" vertex="1">
          <mxGeometry y="30" width="170" height="8" as="geometry" />
        </mxCell>
        <mxCell id="WFNdp1j5Sh6ukdSeras9-55" value="" style="shape=partialRectangle;html=1;whiteSpace=wrap;connectable=0;strokeColor=inherit;overflow=hidden;fillColor=none;top=0;left=0;bottom=0;right=0;pointerEvents=1;fontSize=16;" parent="WFNdp1j5Sh6ukdSeras9-54" vertex="1">
          <mxGeometry width="56" height="8" as="geometry">
            <mxRectangle width="56" height="8" as="alternateBounds" />
          </mxGeometry>
        </mxCell>
        <mxCell id="WFNdp1j5Sh6ukdSeras9-56" value="" style="shape=partialRectangle;html=1;whiteSpace=wrap;connectable=0;strokeColor=inherit;overflow=hidden;fillColor=none;top=0;left=0;bottom=0;right=0;pointerEvents=1;fontSize=16;" parent="WFNdp1j5Sh6ukdSeras9-54" vertex="1">
          <mxGeometry x="56" width="58" height="8" as="geometry">
            <mxRectangle width="58" height="8" as="alternateBounds" />
          </mxGeometry>
        </mxCell>
        <mxCell id="WFNdp1j5Sh6ukdSeras9-57" value="" style="shape=partialRectangle;html=1;whiteSpace=wrap;connectable=0;strokeColor=inherit;overflow=hidden;fillColor=none;top=0;left=0;bottom=0;right=0;pointerEvents=1;fontSize=16;" parent="WFNdp1j5Sh6ukdSeras9-54" vertex="1">
          <mxGeometry x="114" width="56" height="8" as="geometry">
            <mxRectangle width="56" height="8" as="alternateBounds" />
          </mxGeometry>
        </mxCell>
        <mxCell id="WFNdp1j5Sh6ukdSeras9-58" value="" style="shape=tableRow;horizontal=0;startSize=0;swimlaneHead=0;swimlaneBody=0;strokeColor=inherit;top=0;left=0;bottom=0;right=0;collapsible=0;dropTarget=0;fillColor=none;points=[[0,0.5],[1,0.5]];portConstraint=eastwest;fontSize=16;" parent="WFNdp1j5Sh6ukdSeras9-53" vertex="1">
          <mxGeometry y="38" width="170" height="9" as="geometry" />
        </mxCell>
        <mxCell id="WFNdp1j5Sh6ukdSeras9-59" value="" style="shape=partialRectangle;html=1;whiteSpace=wrap;connectable=0;strokeColor=inherit;overflow=hidden;fillColor=none;top=0;left=0;bottom=0;right=0;pointerEvents=1;fontSize=16;" parent="WFNdp1j5Sh6ukdSeras9-58" vertex="1">
          <mxGeometry width="56" height="9" as="geometry">
            <mxRectangle width="56" height="9" as="alternateBounds" />
          </mxGeometry>
        </mxCell>
        <mxCell id="WFNdp1j5Sh6ukdSeras9-60" value="" style="shape=partialRectangle;html=1;whiteSpace=wrap;connectable=0;strokeColor=inherit;overflow=hidden;fillColor=none;top=0;left=0;bottom=0;right=0;pointerEvents=1;fontSize=16;" parent="WFNdp1j5Sh6ukdSeras9-58" vertex="1">
          <mxGeometry x="56" width="58" height="9" as="geometry">
            <mxRectangle width="58" height="9" as="alternateBounds" />
          </mxGeometry>
        </mxCell>
        <mxCell id="WFNdp1j5Sh6ukdSeras9-61" value="" style="shape=partialRectangle;html=1;whiteSpace=wrap;connectable=0;strokeColor=inherit;overflow=hidden;fillColor=none;top=0;left=0;bottom=0;right=0;pointerEvents=1;fontSize=16;" parent="WFNdp1j5Sh6ukdSeras9-58" vertex="1">
          <mxGeometry x="114" width="56" height="9" as="geometry">
            <mxRectangle width="56" height="9" as="alternateBounds" />
          </mxGeometry>
        </mxCell>
        <mxCell id="WFNdp1j5Sh6ukdSeras9-62" value="" style="shape=tableRow;horizontal=0;startSize=0;swimlaneHead=0;swimlaneBody=0;strokeColor=inherit;top=0;left=0;bottom=0;right=0;collapsible=0;dropTarget=0;fillColor=none;points=[[0,0.5],[1,0.5]];portConstraint=eastwest;fontSize=16;" parent="WFNdp1j5Sh6ukdSeras9-53" vertex="1">
          <mxGeometry y="47" width="170" height="8" as="geometry" />
        </mxCell>
        <mxCell id="WFNdp1j5Sh6ukdSeras9-63" value="" style="shape=partialRectangle;html=1;whiteSpace=wrap;connectable=0;strokeColor=inherit;overflow=hidden;fillColor=none;top=0;left=0;bottom=0;right=0;pointerEvents=1;fontSize=16;" parent="WFNdp1j5Sh6ukdSeras9-62" vertex="1">
          <mxGeometry width="56" height="8" as="geometry">
            <mxRectangle width="56" height="8" as="alternateBounds" />
          </mxGeometry>
        </mxCell>
        <mxCell id="WFNdp1j5Sh6ukdSeras9-64" value="" style="shape=partialRectangle;html=1;whiteSpace=wrap;connectable=0;strokeColor=inherit;overflow=hidden;fillColor=none;top=0;left=0;bottom=0;right=0;pointerEvents=1;fontSize=16;" parent="WFNdp1j5Sh6ukdSeras9-62" vertex="1">
          <mxGeometry x="56" width="58" height="8" as="geometry">
            <mxRectangle width="58" height="8" as="alternateBounds" />
          </mxGeometry>
        </mxCell>
        <mxCell id="WFNdp1j5Sh6ukdSeras9-65" value="" style="shape=partialRectangle;html=1;whiteSpace=wrap;connectable=0;strokeColor=inherit;overflow=hidden;fillColor=none;top=0;left=0;bottom=0;right=0;pointerEvents=1;fontSize=16;" parent="WFNdp1j5Sh6ukdSeras9-62" vertex="1">
          <mxGeometry x="114" width="56" height="8" as="geometry">
            <mxRectangle width="56" height="8" as="alternateBounds" />
          </mxGeometry>
        </mxCell>
        <mxCell id="WFNdp1j5Sh6ukdSeras9-66" value="MODELO_DETALLE_VEHÂ " style="shape=table;startSize=30;container=1;collapsible=0;childLayout=tableLayout;strokeColor=default;fontSize=16;" parent="WFNdp1j5Sh6ukdSeras9-1" vertex="1">
          <mxGeometry x="640" y="347.5" width="170" height="55" as="geometry" />
        </mxCell>
        <mxCell id="WFNdp1j5Sh6ukdSeras9-67" value="" style="shape=tableRow;horizontal=0;startSize=0;swimlaneHead=0;swimlaneBody=0;strokeColor=inherit;top=0;left=0;bottom=0;right=0;collapsible=0;dropTarget=0;fillColor=none;points=[[0,0.5],[1,0.5]];portConstraint=eastwest;fontSize=16;" parent="WFNdp1j5Sh6ukdSeras9-66" vertex="1">
          <mxGeometry y="30" width="170" height="8" as="geometry" />
        </mxCell>
        <mxCell id="WFNdp1j5Sh6ukdSeras9-68" value="" style="shape=partialRectangle;html=1;whiteSpace=wrap;connectable=0;strokeColor=inherit;overflow=hidden;fillColor=none;top=0;left=0;bottom=0;right=0;pointerEvents=1;fontSize=16;" parent="WFNdp1j5Sh6ukdSeras9-67" vertex="1">
          <mxGeometry width="56" height="8" as="geometry">
            <mxRectangle width="56" height="8" as="alternateBounds" />
          </mxGeometry>
        </mxCell>
        <mxCell id="WFNdp1j5Sh6ukdSeras9-69" value="" style="shape=partialRectangle;html=1;whiteSpace=wrap;connectable=0;strokeColor=inherit;overflow=hidden;fillColor=none;top=0;left=0;bottom=0;right=0;pointerEvents=1;fontSize=16;" parent="WFNdp1j5Sh6ukdSeras9-67" vertex="1">
          <mxGeometry x="56" width="58" height="8" as="geometry">
            <mxRectangle width="58" height="8" as="alternateBounds" />
          </mxGeometry>
        </mxCell>
        <mxCell id="WFNdp1j5Sh6ukdSeras9-70" value="" style="shape=partialRectangle;html=1;whiteSpace=wrap;connectable=0;strokeColor=inherit;overflow=hidden;fillColor=none;top=0;left=0;bottom=0;right=0;pointerEvents=1;fontSize=16;" parent="WFNdp1j5Sh6ukdSeras9-67" vertex="1">
          <mxGeometry x="114" width="56" height="8" as="geometry">
            <mxRectangle width="56" height="8" as="alternateBounds" />
          </mxGeometry>
        </mxCell>
        <mxCell id="WFNdp1j5Sh6ukdSeras9-71" value="" style="shape=tableRow;horizontal=0;startSize=0;swimlaneHead=0;swimlaneBody=0;strokeColor=inherit;top=0;left=0;bottom=0;right=0;collapsible=0;dropTarget=0;fillColor=none;points=[[0,0.5],[1,0.5]];portConstraint=eastwest;fontSize=16;" parent="WFNdp1j5Sh6ukdSeras9-66" vertex="1">
          <mxGeometry y="38" width="170" height="9" as="geometry" />
        </mxCell>
        <mxCell id="WFNdp1j5Sh6ukdSeras9-72" value="" style="shape=partialRectangle;html=1;whiteSpace=wrap;connectable=0;strokeColor=inherit;overflow=hidden;fillColor=none;top=0;left=0;bottom=0;right=0;pointerEvents=1;fontSize=16;" parent="WFNdp1j5Sh6ukdSeras9-71" vertex="1">
          <mxGeometry width="56" height="9" as="geometry">
            <mxRectangle width="56" height="9" as="alternateBounds" />
          </mxGeometry>
        </mxCell>
        <mxCell id="WFNdp1j5Sh6ukdSeras9-73" value="" style="shape=partialRectangle;html=1;whiteSpace=wrap;connectable=0;strokeColor=inherit;overflow=hidden;fillColor=none;top=0;left=0;bottom=0;right=0;pointerEvents=1;fontSize=16;" parent="WFNdp1j5Sh6ukdSeras9-71" vertex="1">
          <mxGeometry x="56" width="58" height="9" as="geometry">
            <mxRectangle width="58" height="9" as="alternateBounds" />
          </mxGeometry>
        </mxCell>
        <mxCell id="WFNdp1j5Sh6ukdSeras9-74" value="" style="shape=partialRectangle;html=1;whiteSpace=wrap;connectable=0;strokeColor=inherit;overflow=hidden;fillColor=none;top=0;left=0;bottom=0;right=0;pointerEvents=1;fontSize=16;" parent="WFNdp1j5Sh6ukdSeras9-71" vertex="1">
          <mxGeometry x="114" width="56" height="9" as="geometry">
            <mxRectangle width="56" height="9" as="alternateBounds" />
          </mxGeometry>
        </mxCell>
        <mxCell id="WFNdp1j5Sh6ukdSeras9-75" value="" style="shape=tableRow;horizontal=0;startSize=0;swimlaneHead=0;swimlaneBody=0;strokeColor=inherit;top=0;left=0;bottom=0;right=0;collapsible=0;dropTarget=0;fillColor=none;points=[[0,0.5],[1,0.5]];portConstraint=eastwest;fontSize=16;" parent="WFNdp1j5Sh6ukdSeras9-66" vertex="1">
          <mxGeometry y="47" width="170" height="8" as="geometry" />
        </mxCell>
        <mxCell id="WFNdp1j5Sh6ukdSeras9-76" value="" style="shape=partialRectangle;html=1;whiteSpace=wrap;connectable=0;strokeColor=inherit;overflow=hidden;fillColor=none;top=0;left=0;bottom=0;right=0;pointerEvents=1;fontSize=16;" parent="WFNdp1j5Sh6ukdSeras9-75" vertex="1">
          <mxGeometry width="56" height="8" as="geometry">
            <mxRectangle width="56" height="8" as="alternateBounds" />
          </mxGeometry>
        </mxCell>
        <mxCell id="WFNdp1j5Sh6ukdSeras9-77" value="" style="shape=partialRectangle;html=1;whiteSpace=wrap;connectable=0;strokeColor=inherit;overflow=hidden;fillColor=none;top=0;left=0;bottom=0;right=0;pointerEvents=1;fontSize=16;" parent="WFNdp1j5Sh6ukdSeras9-75" vertex="1">
          <mxGeometry x="56" width="58" height="8" as="geometry">
            <mxRectangle width="58" height="8" as="alternateBounds" />
          </mxGeometry>
        </mxCell>
        <mxCell id="WFNdp1j5Sh6ukdSeras9-78" value="" style="shape=partialRectangle;html=1;whiteSpace=wrap;connectable=0;strokeColor=inherit;overflow=hidden;fillColor=none;top=0;left=0;bottom=0;right=0;pointerEvents=1;fontSize=16;" parent="WFNdp1j5Sh6ukdSeras9-75" vertex="1">
          <mxGeometry x="114" width="56" height="8" as="geometry">
            <mxRectangle width="56" height="8" as="alternateBounds" />
          </mxGeometry>
        </mxCell>
        <mxCell id="WFNdp1j5Sh6ukdSeras9-79" value="MARCA_VEH" style="shape=table;startSize=30;container=1;collapsible=0;childLayout=tableLayout;strokeColor=default;fontSize=16;" parent="WFNdp1j5Sh6ukdSeras9-1" vertex="1">
          <mxGeometry x="640" y="464.2" width="170" height="55" as="geometry" />
        </mxCell>
        <mxCell id="WFNdp1j5Sh6ukdSeras9-80" value="" style="shape=tableRow;horizontal=0;startSize=0;swimlaneHead=0;swimlaneBody=0;strokeColor=inherit;top=0;left=0;bottom=0;right=0;collapsible=0;dropTarget=0;fillColor=none;points=[[0,0.5],[1,0.5]];portConstraint=eastwest;fontSize=16;" parent="WFNdp1j5Sh6ukdSeras9-79" vertex="1">
          <mxGeometry y="30" width="170" height="8" as="geometry" />
        </mxCell>
        <mxCell id="WFNdp1j5Sh6ukdSeras9-81" value="" style="shape=partialRectangle;html=1;whiteSpace=wrap;connectable=0;strokeColor=inherit;overflow=hidden;fillColor=none;top=0;left=0;bottom=0;right=0;pointerEvents=1;fontSize=16;" parent="WFNdp1j5Sh6ukdSeras9-80" vertex="1">
          <mxGeometry width="56" height="8" as="geometry">
            <mxRectangle width="56" height="8" as="alternateBounds" />
          </mxGeometry>
        </mxCell>
        <mxCell id="WFNdp1j5Sh6ukdSeras9-82" value="" style="shape=partialRectangle;html=1;whiteSpace=wrap;connectable=0;strokeColor=inherit;overflow=hidden;fillColor=none;top=0;left=0;bottom=0;right=0;pointerEvents=1;fontSize=16;" parent="WFNdp1j5Sh6ukdSeras9-80" vertex="1">
          <mxGeometry x="56" width="58" height="8" as="geometry">
            <mxRectangle width="58" height="8" as="alternateBounds" />
          </mxGeometry>
        </mxCell>
        <mxCell id="WFNdp1j5Sh6ukdSeras9-83" value="" style="shape=partialRectangle;html=1;whiteSpace=wrap;connectable=0;strokeColor=inherit;overflow=hidden;fillColor=none;top=0;left=0;bottom=0;right=0;pointerEvents=1;fontSize=16;" parent="WFNdp1j5Sh6ukdSeras9-80" vertex="1">
          <mxGeometry x="114" width="56" height="8" as="geometry">
            <mxRectangle width="56" height="8" as="alternateBounds" />
          </mxGeometry>
        </mxCell>
        <mxCell id="WFNdp1j5Sh6ukdSeras9-84" value="" style="shape=tableRow;horizontal=0;startSize=0;swimlaneHead=0;swimlaneBody=0;strokeColor=inherit;top=0;left=0;bottom=0;right=0;collapsible=0;dropTarget=0;fillColor=none;points=[[0,0.5],[1,0.5]];portConstraint=eastwest;fontSize=16;" parent="WFNdp1j5Sh6ukdSeras9-79" vertex="1">
          <mxGeometry y="38" width="170" height="9" as="geometry" />
        </mxCell>
        <mxCell id="WFNdp1j5Sh6ukdSeras9-85" value="" style="shape=partialRectangle;html=1;whiteSpace=wrap;connectable=0;strokeColor=inherit;overflow=hidden;fillColor=none;top=0;left=0;bottom=0;right=0;pointerEvents=1;fontSize=16;" parent="WFNdp1j5Sh6ukdSeras9-84" vertex="1">
          <mxGeometry width="56" height="9" as="geometry">
            <mxRectangle width="56" height="9" as="alternateBounds" />
          </mxGeometry>
        </mxCell>
        <mxCell id="WFNdp1j5Sh6ukdSeras9-86" value="" style="shape=partialRectangle;html=1;whiteSpace=wrap;connectable=0;strokeColor=inherit;overflow=hidden;fillColor=none;top=0;left=0;bottom=0;right=0;pointerEvents=1;fontSize=16;" parent="WFNdp1j5Sh6ukdSeras9-84" vertex="1">
          <mxGeometry x="56" width="58" height="9" as="geometry">
            <mxRectangle width="58" height="9" as="alternateBounds" />
          </mxGeometry>
        </mxCell>
        <mxCell id="WFNdp1j5Sh6ukdSeras9-87" value="" style="shape=partialRectangle;html=1;whiteSpace=wrap;connectable=0;strokeColor=inherit;overflow=hidden;fillColor=none;top=0;left=0;bottom=0;right=0;pointerEvents=1;fontSize=16;" parent="WFNdp1j5Sh6ukdSeras9-84" vertex="1">
          <mxGeometry x="114" width="56" height="9" as="geometry">
            <mxRectangle width="56" height="9" as="alternateBounds" />
          </mxGeometry>
        </mxCell>
        <mxCell id="WFNdp1j5Sh6ukdSeras9-88" value="" style="shape=tableRow;horizontal=0;startSize=0;swimlaneHead=0;swimlaneBody=0;strokeColor=inherit;top=0;left=0;bottom=0;right=0;collapsible=0;dropTarget=0;fillColor=none;points=[[0,0.5],[1,0.5]];portConstraint=eastwest;fontSize=16;" parent="WFNdp1j5Sh6ukdSeras9-79" vertex="1">
          <mxGeometry y="47" width="170" height="8" as="geometry" />
        </mxCell>
        <mxCell id="WFNdp1j5Sh6ukdSeras9-89" value="" style="shape=partialRectangle;html=1;whiteSpace=wrap;connectable=0;strokeColor=inherit;overflow=hidden;fillColor=none;top=0;left=0;bottom=0;right=0;pointerEvents=1;fontSize=16;" parent="WFNdp1j5Sh6ukdSeras9-88" vertex="1">
          <mxGeometry width="56" height="8" as="geometry">
            <mxRectangle width="56" height="8" as="alternateBounds" />
          </mxGeometry>
        </mxCell>
        <mxCell id="WFNdp1j5Sh6ukdSeras9-90" value="" style="shape=partialRectangle;html=1;whiteSpace=wrap;connectable=0;strokeColor=inherit;overflow=hidden;fillColor=none;top=0;left=0;bottom=0;right=0;pointerEvents=1;fontSize=16;" parent="WFNdp1j5Sh6ukdSeras9-88" vertex="1">
          <mxGeometry x="56" width="58" height="8" as="geometry">
            <mxRectangle width="58" height="8" as="alternateBounds" />
          </mxGeometry>
        </mxCell>
        <mxCell id="WFNdp1j5Sh6ukdSeras9-91" value="" style="shape=partialRectangle;html=1;whiteSpace=wrap;connectable=0;strokeColor=inherit;overflow=hidden;fillColor=none;top=0;left=0;bottom=0;right=0;pointerEvents=1;fontSize=16;" parent="WFNdp1j5Sh6ukdSeras9-88" vertex="1">
          <mxGeometry x="114" width="56" height="8" as="geometry">
            <mxRectangle width="56" height="8" as="alternateBounds" />
          </mxGeometry>
        </mxCell>
        <mxCell id="EktAlmnSRhTw89N247DK-1" value="" style="shape=image;html=1;verticalAlign=top;verticalLabelPosition=bottom;labelBackgroundColor=#ffffff;imageAspect=0;aspect=fixed;image=https://cdn3.iconfinder.com/data/icons/brands-applications/512/Excel_D-128.png" parent="WFNdp1j5Sh6ukdSeras9-1" vertex="1">
          <mxGeometry x="702.5999999999999" y="61.7" width="44.8" height="44.8" as="geometry" />
        </mxCell>
        <mxCell id="EktAlmnSRhTw89N247DK-2" value="" style="shape=image;html=1;verticalAlign=top;verticalLabelPosition=bottom;labelBackgroundColor=#ffffff;imageAspect=0;aspect=fixed;image=https://cdn3.iconfinder.com/data/icons/brands-applications/512/Excel_D-128.png" parent="WFNdp1j5Sh6ukdSeras9-1" vertex="1">
          <mxGeometry x="422.6" y="143.34999999999997" width="44.8" height="44.8" as="geometry" />
        </mxCell>
        <mxCell id="EktAlmnSRhTw89N247DK-56" style="edgeStyle=orthogonalEdgeStyle;rounded=0;orthogonalLoop=1;jettySize=auto;html=1;entryX=0.5;entryY=0;entryDx=0;entryDy=0;" parent="WFNdp1j5Sh6ukdSeras9-1" source="EktAlmnSRhTw89N247DK-4" target="EktAlmnSRhTw89N247DK-41" edge="1">
          <mxGeometry relative="1" as="geometry" />
        </mxCell>
        <mxCell id="EktAlmnSRhTw89N247DK-4" value="Estructura Catalogo Autos" style="shape=table;startSize=30;container=1;collapsible=0;childLayout=tableLayout;strokeColor=default;fontSize=16;" parent="WFNdp1j5Sh6ukdSeras9-1" vertex="1">
          <mxGeometry x="350" y="196.45" width="190" height="55" as="geometry" />
        </mxCell>
        <mxCell id="EktAlmnSRhTw89N247DK-5" value="" style="shape=tableRow;horizontal=0;startSize=0;swimlaneHead=0;swimlaneBody=0;strokeColor=inherit;top=0;left=0;bottom=0;right=0;collapsible=0;dropTarget=0;fillColor=none;points=[[0,0.5],[1,0.5]];portConstraint=eastwest;fontSize=16;" parent="EktAlmnSRhTw89N247DK-4" vertex="1">
          <mxGeometry y="30" width="190" height="8" as="geometry" />
        </mxCell>
        <mxCell id="EktAlmnSRhTw89N247DK-6" value="" style="shape=partialRectangle;html=1;whiteSpace=wrap;connectable=0;strokeColor=inherit;overflow=hidden;fillColor=none;top=0;left=0;bottom=0;right=0;pointerEvents=1;fontSize=16;" parent="EktAlmnSRhTw89N247DK-5" vertex="1">
          <mxGeometry width="62" height="8" as="geometry">
            <mxRectangle width="62" height="8" as="alternateBounds" />
          </mxGeometry>
        </mxCell>
        <mxCell id="EktAlmnSRhTw89N247DK-7" value="" style="shape=partialRectangle;html=1;whiteSpace=wrap;connectable=0;strokeColor=inherit;overflow=hidden;fillColor=none;top=0;left=0;bottom=0;right=0;pointerEvents=1;fontSize=16;" parent="EktAlmnSRhTw89N247DK-5" vertex="1">
          <mxGeometry x="62" width="66" height="8" as="geometry">
            <mxRectangle width="66" height="8" as="alternateBounds" />
          </mxGeometry>
        </mxCell>
        <mxCell id="EktAlmnSRhTw89N247DK-8" value="" style="shape=partialRectangle;html=1;whiteSpace=wrap;connectable=0;strokeColor=inherit;overflow=hidden;fillColor=none;top=0;left=0;bottom=0;right=0;pointerEvents=1;fontSize=16;" parent="EktAlmnSRhTw89N247DK-5" vertex="1">
          <mxGeometry x="128" width="62" height="8" as="geometry">
            <mxRectangle width="62" height="8" as="alternateBounds" />
          </mxGeometry>
        </mxCell>
        <mxCell id="EktAlmnSRhTw89N247DK-9" value="" style="shape=tableRow;horizontal=0;startSize=0;swimlaneHead=0;swimlaneBody=0;strokeColor=inherit;top=0;left=0;bottom=0;right=0;collapsible=0;dropTarget=0;fillColor=none;points=[[0,0.5],[1,0.5]];portConstraint=eastwest;fontSize=16;" parent="EktAlmnSRhTw89N247DK-4" vertex="1">
          <mxGeometry y="38" width="190" height="9" as="geometry" />
        </mxCell>
        <mxCell id="EktAlmnSRhTw89N247DK-10" value="" style="shape=partialRectangle;html=1;whiteSpace=wrap;connectable=0;strokeColor=inherit;overflow=hidden;fillColor=none;top=0;left=0;bottom=0;right=0;pointerEvents=1;fontSize=16;" parent="EktAlmnSRhTw89N247DK-9" vertex="1">
          <mxGeometry width="62" height="9" as="geometry">
            <mxRectangle width="62" height="9" as="alternateBounds" />
          </mxGeometry>
        </mxCell>
        <mxCell id="EktAlmnSRhTw89N247DK-11" value="" style="shape=partialRectangle;html=1;whiteSpace=wrap;connectable=0;strokeColor=inherit;overflow=hidden;fillColor=none;top=0;left=0;bottom=0;right=0;pointerEvents=1;fontSize=16;" parent="EktAlmnSRhTw89N247DK-9" vertex="1">
          <mxGeometry x="62" width="66" height="9" as="geometry">
            <mxRectangle width="66" height="9" as="alternateBounds" />
          </mxGeometry>
        </mxCell>
        <mxCell id="EktAlmnSRhTw89N247DK-12" value="" style="shape=partialRectangle;html=1;whiteSpace=wrap;connectable=0;strokeColor=inherit;overflow=hidden;fillColor=none;top=0;left=0;bottom=0;right=0;pointerEvents=1;fontSize=16;" parent="EktAlmnSRhTw89N247DK-9" vertex="1">
          <mxGeometry x="128" width="62" height="9" as="geometry">
            <mxRectangle width="62" height="9" as="alternateBounds" />
          </mxGeometry>
        </mxCell>
        <mxCell id="EktAlmnSRhTw89N247DK-13" value="" style="shape=tableRow;horizontal=0;startSize=0;swimlaneHead=0;swimlaneBody=0;strokeColor=inherit;top=0;left=0;bottom=0;right=0;collapsible=0;dropTarget=0;fillColor=none;points=[[0,0.5],[1,0.5]];portConstraint=eastwest;fontSize=16;" parent="EktAlmnSRhTw89N247DK-4" vertex="1">
          <mxGeometry y="47" width="190" height="8" as="geometry" />
        </mxCell>
        <mxCell id="EktAlmnSRhTw89N247DK-14" value="" style="shape=partialRectangle;html=1;whiteSpace=wrap;connectable=0;strokeColor=inherit;overflow=hidden;fillColor=none;top=0;left=0;bottom=0;right=0;pointerEvents=1;fontSize=16;" parent="EktAlmnSRhTw89N247DK-13" vertex="1">
          <mxGeometry width="62" height="8" as="geometry">
            <mxRectangle width="62" height="8" as="alternateBounds" />
          </mxGeometry>
        </mxCell>
        <mxCell id="EktAlmnSRhTw89N247DK-15" value="" style="shape=partialRectangle;html=1;whiteSpace=wrap;connectable=0;strokeColor=inherit;overflow=hidden;fillColor=none;top=0;left=0;bottom=0;right=0;pointerEvents=1;fontSize=16;" parent="EktAlmnSRhTw89N247DK-13" vertex="1">
          <mxGeometry x="62" width="66" height="8" as="geometry">
            <mxRectangle width="66" height="8" as="alternateBounds" />
          </mxGeometry>
        </mxCell>
        <mxCell id="EktAlmnSRhTw89N247DK-16" value="" style="shape=partialRectangle;html=1;whiteSpace=wrap;connectable=0;strokeColor=inherit;overflow=hidden;fillColor=none;top=0;left=0;bottom=0;right=0;pointerEvents=1;fontSize=16;" parent="EktAlmnSRhTw89N247DK-13" vertex="1">
          <mxGeometry x="128" width="62" height="8" as="geometry">
            <mxRectangle width="62" height="8" as="alternateBounds" />
          </mxGeometry>
        </mxCell>
        <mxCell id="EktAlmnSRhTw89N247DK-32" style="edgeStyle=orthogonalEdgeStyle;rounded=0;orthogonalLoop=1;jettySize=auto;html=1;entryX=0.5;entryY=1;entryDx=0;entryDy=0;startArrow=classic;startFill=1;" parent="WFNdp1j5Sh6ukdSeras9-1" source="EktAlmnSRhTw89N247DK-22" target="WFNdp1j5Sh6ukdSeras9-4" edge="1">
          <mxGeometry relative="1" as="geometry" />
        </mxCell>
        <mxCell id="EktAlmnSRhTw89N247DK-22" value="" style="shape=image;html=1;verticalAlign=top;verticalLabelPosition=bottom;labelBackgroundColor=#ffffff;imageAspect=0;aspect=fixed;image=https://cdn2.iconfinder.com/data/icons/whcompare-isometric-web-hosting-servers/50/database-128.png;" parent="WFNdp1j5Sh6ukdSeras9-1" vertex="1">
          <mxGeometry x="40" y="271.8" width="84" height="84" as="geometry" />
        </mxCell>
        <mxCell id="EktAlmnSRhTw89N247DK-23" value="&lt;span style=&quot;font-size: 16px;&quot;&gt;ESPACIO&lt;/span&gt;" style="text;html=1;strokeColor=none;fillColor=none;align=center;verticalAlign=middle;whiteSpace=wrap;rounded=0;fontSize=15;fontStyle=1" parent="WFNdp1j5Sh6ukdSeras9-1" vertex="1">
          <mxGeometry x="33.25" y="358.8" width="97.5" height="30" as="geometry" />
        </mxCell>
        <mxCell id="EktAlmnSRhTw89N247DK-41" value="" style="shape=image;html=1;verticalAlign=top;verticalLabelPosition=bottom;labelBackgroundColor=#ffffff;imageAspect=0;aspect=fixed;image=https://cdn3.iconfinder.com/data/icons/brands-applications/512/Excel_D-128.png" parent="WFNdp1j5Sh6ukdSeras9-1" vertex="1">
          <mxGeometry x="422.6" y="310.95" width="44.8" height="44.8" as="geometry" />
        </mxCell>
        <mxCell id="EktAlmnSRhTw89N247DK-42" value="VALORES AUTOS ACSEL" style="shape=table;startSize=30;container=1;collapsible=0;childLayout=tableLayout;strokeColor=default;fontSize=16;" parent="WFNdp1j5Sh6ukdSeras9-1" vertex="1">
          <mxGeometry x="350" y="364.05" width="190" height="55" as="geometry" />
        </mxCell>
        <mxCell id="EktAlmnSRhTw89N247DK-43" value="" style="shape=tableRow;horizontal=0;startSize=0;swimlaneHead=0;swimlaneBody=0;strokeColor=inherit;top=0;left=0;bottom=0;right=0;collapsible=0;dropTarget=0;fillColor=none;points=[[0,0.5],[1,0.5]];portConstraint=eastwest;fontSize=16;" parent="EktAlmnSRhTw89N247DK-42" vertex="1">
          <mxGeometry y="30" width="190" height="8" as="geometry" />
        </mxCell>
        <mxCell id="EktAlmnSRhTw89N247DK-44" value="" style="shape=partialRectangle;html=1;whiteSpace=wrap;connectable=0;strokeColor=inherit;overflow=hidden;fillColor=none;top=0;left=0;bottom=0;right=0;pointerEvents=1;fontSize=16;" parent="EktAlmnSRhTw89N247DK-43" vertex="1">
          <mxGeometry width="62" height="8" as="geometry">
            <mxRectangle width="62" height="8" as="alternateBounds" />
          </mxGeometry>
        </mxCell>
        <mxCell id="EktAlmnSRhTw89N247DK-45" value="" style="shape=partialRectangle;html=1;whiteSpace=wrap;connectable=0;strokeColor=inherit;overflow=hidden;fillColor=none;top=0;left=0;bottom=0;right=0;pointerEvents=1;fontSize=16;" parent="EktAlmnSRhTw89N247DK-43" vertex="1">
          <mxGeometry x="62" width="66" height="8" as="geometry">
            <mxRectangle width="66" height="8" as="alternateBounds" />
          </mxGeometry>
        </mxCell>
        <mxCell id="EktAlmnSRhTw89N247DK-46" value="" style="shape=partialRectangle;html=1;whiteSpace=wrap;connectable=0;strokeColor=inherit;overflow=hidden;fillColor=none;top=0;left=0;bottom=0;right=0;pointerEvents=1;fontSize=16;" parent="EktAlmnSRhTw89N247DK-43" vertex="1">
          <mxGeometry x="128" width="62" height="8" as="geometry">
            <mxRectangle width="62" height="8" as="alternateBounds" />
          </mxGeometry>
        </mxCell>
        <mxCell id="EktAlmnSRhTw89N247DK-47" value="" style="shape=tableRow;horizontal=0;startSize=0;swimlaneHead=0;swimlaneBody=0;strokeColor=inherit;top=0;left=0;bottom=0;right=0;collapsible=0;dropTarget=0;fillColor=none;points=[[0,0.5],[1,0.5]];portConstraint=eastwest;fontSize=16;" parent="EktAlmnSRhTw89N247DK-42" vertex="1">
          <mxGeometry y="38" width="190" height="9" as="geometry" />
        </mxCell>
        <mxCell id="EktAlmnSRhTw89N247DK-48" value="" style="shape=partialRectangle;html=1;whiteSpace=wrap;connectable=0;strokeColor=inherit;overflow=hidden;fillColor=none;top=0;left=0;bottom=0;right=0;pointerEvents=1;fontSize=16;" parent="EktAlmnSRhTw89N247DK-47" vertex="1">
          <mxGeometry width="62" height="9" as="geometry">
            <mxRectangle width="62" height="9" as="alternateBounds" />
          </mxGeometry>
        </mxCell>
        <mxCell id="EktAlmnSRhTw89N247DK-49" value="" style="shape=partialRectangle;html=1;whiteSpace=wrap;connectable=0;strokeColor=inherit;overflow=hidden;fillColor=none;top=0;left=0;bottom=0;right=0;pointerEvents=1;fontSize=16;" parent="EktAlmnSRhTw89N247DK-47" vertex="1">
          <mxGeometry x="62" width="66" height="9" as="geometry">
            <mxRectangle width="66" height="9" as="alternateBounds" />
          </mxGeometry>
        </mxCell>
        <mxCell id="EktAlmnSRhTw89N247DK-50" value="" style="shape=partialRectangle;html=1;whiteSpace=wrap;connectable=0;strokeColor=inherit;overflow=hidden;fillColor=none;top=0;left=0;bottom=0;right=0;pointerEvents=1;fontSize=16;" parent="EktAlmnSRhTw89N247DK-47" vertex="1">
          <mxGeometry x="128" width="62" height="9" as="geometry">
            <mxRectangle width="62" height="9" as="alternateBounds" />
          </mxGeometry>
        </mxCell>
        <mxCell id="EktAlmnSRhTw89N247DK-51" value="" style="shape=tableRow;horizontal=0;startSize=0;swimlaneHead=0;swimlaneBody=0;strokeColor=inherit;top=0;left=0;bottom=0;right=0;collapsible=0;dropTarget=0;fillColor=none;points=[[0,0.5],[1,0.5]];portConstraint=eastwest;fontSize=16;" parent="EktAlmnSRhTw89N247DK-42" vertex="1">
          <mxGeometry y="47" width="190" height="8" as="geometry" />
        </mxCell>
        <mxCell id="EktAlmnSRhTw89N247DK-52" value="" style="shape=partialRectangle;html=1;whiteSpace=wrap;connectable=0;strokeColor=inherit;overflow=hidden;fillColor=none;top=0;left=0;bottom=0;right=0;pointerEvents=1;fontSize=16;" parent="EktAlmnSRhTw89N247DK-51" vertex="1">
          <mxGeometry width="62" height="8" as="geometry">
            <mxRectangle width="62" height="8" as="alternateBounds" />
          </mxGeometry>
        </mxCell>
        <mxCell id="EktAlmnSRhTw89N247DK-53" value="" style="shape=partialRectangle;html=1;whiteSpace=wrap;connectable=0;strokeColor=inherit;overflow=hidden;fillColor=none;top=0;left=0;bottom=0;right=0;pointerEvents=1;fontSize=16;" parent="EktAlmnSRhTw89N247DK-51" vertex="1">
          <mxGeometry x="62" width="66" height="8" as="geometry">
            <mxRectangle width="66" height="8" as="alternateBounds" />
          </mxGeometry>
        </mxCell>
        <mxCell id="EktAlmnSRhTw89N247DK-54" value="" style="shape=partialRectangle;html=1;whiteSpace=wrap;connectable=0;strokeColor=inherit;overflow=hidden;fillColor=none;top=0;left=0;bottom=0;right=0;pointerEvents=1;fontSize=16;" parent="EktAlmnSRhTw89N247DK-51" vertex="1">
          <mxGeometry x="128" width="62" height="8" as="geometry">
            <mxRectangle width="62" height="8" as="alternateBounds" />
          </mxGeometry>
        </mxCell>
        <mxCell id="EktAlmnSRhTw89N247DK-58" value="BASES" style="fillColor=none;strokeColor=#050505;verticalAlign=top;fontStyle=0;fontColor=#5A6C86;whiteSpace=wrap;html=1;dashed=1;strokeWidth=2;" parent="WFNdp1j5Sh6ukdSeras9-1" vertex="1">
          <mxGeometry x="10" y="57" width="180" height="500" as="geometry" />
        </mxCell>
        <mxCell id="EktAlmnSRhTw89N247DK-62" style="edgeStyle=orthogonalEdgeStyle;rounded=0;orthogonalLoop=1;jettySize=auto;html=1;entryX=0.5;entryY=1;entryDx=0;entryDy=0;startArrow=classic;startFill=1;" parent="WFNdp1j5Sh6ukdSeras9-1" source="EktAlmnSRhTw89N247DK-59" target="EktAlmnSRhTw89N247DK-23" edge="1">
          <mxGeometry relative="1" as="geometry" />
        </mxCell>
        <mxCell id="EktAlmnSRhTw89N247DK-59" value="" style="shape=image;html=1;verticalAlign=top;verticalLabelPosition=bottom;labelBackgroundColor=#ffffff;imageAspect=0;aspect=fixed;image=https://cdn2.iconfinder.com/data/icons/whcompare-isometric-web-hosting-servers/50/database-128.png;" parent="WFNdp1j5Sh6ukdSeras9-1" vertex="1">
          <mxGeometry x="40" y="440" width="84" height="84" as="geometry" />
        </mxCell>
        <mxCell id="EktAlmnSRhTw89N247DK-60" value="&lt;span style=&quot;font-size: 16px;&quot;&gt;ENLACE&lt;/span&gt;" style="text;html=1;strokeColor=none;fillColor=none;align=center;verticalAlign=middle;whiteSpace=wrap;rounded=0;fontSize=15;fontStyle=1" parent="WFNdp1j5Sh6ukdSeras9-1" vertex="1">
          <mxGeometry x="33.25" y="527" width="97.5" height="30" as="geometry" />
        </mxCell>
        <mxCell id="EktAlmnSRhTw89N247DK-63" value="" style="fillColor=none;strokeColor=#050505;verticalAlign=top;fontStyle=0;fontColor=#5A6C86;whiteSpace=wrap;html=1;dashed=1;strokeWidth=2;" parent="WFNdp1j5Sh6ukdSeras9-1" vertex="1">
          <mxGeometry x="330" y="124.2" width="230" height="340" as="geometry" />
        </mxCell>
        <mxCell id="EktAlmnSRhTw89N247DK-66" value="" style="shape=image;html=1;verticalAlign=top;verticalLabelPosition=bottom;labelBackgroundColor=#ffffff;imageAspect=0;aspect=fixed;image=https://cdn3.iconfinder.com/data/icons/brands-applications/512/Excel_D-128.png" parent="WFNdp1j5Sh6ukdSeras9-1" vertex="1">
          <mxGeometry x="702.5999999999999" y="175" width="44.8" height="44.8" as="geometry" />
        </mxCell>
        <mxCell id="EktAlmnSRhTw89N247DK-67" value="" style="shape=image;html=1;verticalAlign=top;verticalLabelPosition=bottom;labelBackgroundColor=#ffffff;imageAspect=0;aspect=fixed;image=https://cdn3.iconfinder.com/data/icons/brands-applications/512/Excel_D-128.png" parent="WFNdp1j5Sh6ukdSeras9-1" vertex="1">
          <mxGeometry x="702.5999999999999" y="296.8" width="44.8" height="44.8" as="geometry" />
        </mxCell>
        <mxCell id="EktAlmnSRhTw89N247DK-68" value="" style="shape=image;html=1;verticalAlign=top;verticalLabelPosition=bottom;labelBackgroundColor=#ffffff;imageAspect=0;aspect=fixed;image=https://cdn3.iconfinder.com/data/icons/brands-applications/512/Excel_D-128.png" parent="WFNdp1j5Sh6ukdSeras9-1" vertex="1">
          <mxGeometry x="702.5999999999999" y="419.05" width="44.8" height="44.8" as="geometry" />
        </mxCell>
        <mxCell id="EktAlmnSRhTw89N247DK-69" value="" style="fillColor=none;strokeColor=#050505;verticalAlign=top;fontStyle=0;fontColor=#5A6C86;whiteSpace=wrap;html=1;dashed=1;strokeWidth=2;" parent="WFNdp1j5Sh6ukdSeras9-1" vertex="1">
          <mxGeometry x="620" y="57" width="210" height="501.2" as="geometry" />
        </mxCell>
        <mxCell id="EktAlmnSRhTw89N247DK-70" style="edgeStyle=orthogonalEdgeStyle;rounded=0;orthogonalLoop=1;jettySize=auto;html=1;entryX=0.002;entryY=0.472;entryDx=0;entryDy=0;entryPerimeter=0;strokeWidth=2;" parent="WFNdp1j5Sh6ukdSeras9-1" source="EktAlmnSRhTw89N247DK-63" target="EktAlmnSRhTw89N247DK-69" edge="1">
          <mxGeometry relative="1" as="geometry" />
        </mxCell>
        <mxCell id="Y3qfd9Hi1B5QyUMz8Kjt-1" style="edgeStyle=orthogonalEdgeStyle;rounded=0;orthogonalLoop=1;jettySize=auto;html=1;entryX=-0.005;entryY=0.539;entryDx=0;entryDy=0;entryPerimeter=0;startArrow=classic;startFill=1;" edge="1" parent="WFNdp1j5Sh6ukdSeras9-1" source="EktAlmnSRhTw89N247DK-58" target="EktAlmnSRhTw89N247DK-63">
          <mxGeometry relative="1" as="geometry" />
        </mxCell>
        <mxCell id="EktAlmnSRhTw89N247DK-35" value="&lt;span style=&quot;font-size: 16px;&quot;&gt;Reglas de ingesta de claves&lt;/span&gt;" style="text;html=1;strokeColor=none;fillColor=none;align=center;verticalAlign=middle;whiteSpace=wrap;rounded=0;fontSize=15;fontStyle=1;" parent="WFNdp1j5Sh6ukdSeras9-1" vertex="1">
          <mxGeometry x="390" y="27" width="100" height="30" as="geometry" />
        </mxCell>
        <mxCell id="EktAlmnSRhTw89N247DK-25" value="GUIA AZUL" style="html=1;whiteSpace=wrap;strokeColor=none;fillColor=#0079D6;labelPosition=center;verticalLabelPosition=middle;verticalAlign=top;align=center;fontSize=12;outlineConnect=0;spacingTop=-6;fontColor=#FFFFFF;sketch=0;shape=mxgraph.sitemap.document;" parent="1" vertex="1">
          <mxGeometry x="428.75" y="-150" width="120" height="70" as="geometry" />
        </mxCell>
        <mxCell id="Y3qfd9Hi1B5QyUMz8Kjt-2" style="edgeStyle=orthogonalEdgeStyle;rounded=0;orthogonalLoop=1;jettySize=auto;html=1;entryX=0.5;entryY=0;entryDx=0;entryDy=0;" edge="1" parent="1" source="EktAlmnSRhTw89N247DK-28" target="EktAlmnSRhTw89N247DK-63">
          <mxGeometry relative="1" as="geometry" />
        </mxCell>
        <mxCell id="EktAlmnSRhTw89N247DK-28" value="PROVEEDORES" style="fillColor=none;strokeColor=#050505;verticalAlign=top;fontStyle=0;fontColor=#5A6C86;whiteSpace=wrap;html=1;dashed=1;dashPattern=12 12;" parent="1" vertex="1">
          <mxGeometry x="295" y="-180" width="380" height="120" as="geometry" />
        </mxCell>
        <mxCell id="EktAlmnSRhTw89N247DK-29" value="" style="sketch=0;outlineConnect=0;fontColor=#232F3E;gradientColor=none;fillColor=#232F3D;strokeColor=none;dashed=0;verticalLabelPosition=bottom;verticalAlign=top;align=center;html=1;fontSize=12;fontStyle=0;aspect=fixed;pointerEvents=1;shape=mxgraph.aws4.document;" parent="1" vertex="1">
          <mxGeometry x="343.75" y="-158" width="42.38" height="58" as="geometry" />
        </mxCell>
        <mxCell id="EktAlmnSRhTw89N247DK-30" value="&lt;span style=&quot;font-size: 16px;&quot;&gt;Facturas&lt;/span&gt;" style="text;html=1;strokeColor=none;fillColor=none;align=center;verticalAlign=middle;whiteSpace=wrap;rounded=0;fontSize=15;fontStyle=1" parent="1" vertex="1">
          <mxGeometry x="313.75" y="-99.99999999999997" width="97.5" height="30" as="geometry" />
        </mxCell>
        <mxCell id="EktAlmnSRhTw89N247DK-33" value="" style="shape=image;html=1;verticalAlign=top;verticalLabelPosition=bottom;labelBackgroundColor=#ffffff;imageAspect=0;aspect=fixed;image=https://cdn1.iconfinder.com/data/icons/seo-and-web-development-6/32/Web_website_favorite_site_star-128.png" parent="1" vertex="1">
          <mxGeometry x="568.75" y="-170" width="70" height="70" as="geometry" />
        </mxCell>
        <mxCell id="EktAlmnSRhTw89N247DK-34" value="&lt;span style=&quot;font-size: 16px;&quot;&gt;Sitio Web&lt;/span&gt;" style="text;html=1;strokeColor=none;fillColor=none;align=center;verticalAlign=middle;whiteSpace=wrap;rounded=0;fontSize=15;fontStyle=1" parent="1" vertex="1">
          <mxGeometry x="558.75" y="-99.99999999999997" width="97.5" height="30" as="geometry" />
        </mxCell>
      </root>
    </mxGraphModel>
  </diagram>
</mxfile>
